<mxfile host="app.diagrams.net" modified="2024-05-10T13:35:17.844Z" agent="Mozilla/5.0 (Windows NT 10.0; Win64; x64) AppleWebKit/537.36 (KHTML, like Gecko) Chrome/124.0.0.0 Safari/537.36" etag="VRQaAscWoPA8zjyR1Kka" version="24.3.1" type="device">
  <diagram name="Pagina-1" id="7Oa-aXNxen-dVgEFtfnv">
    <mxGraphModel dx="378" dy="212" grid="1" gridSize="10" guides="1" tooltips="1" connect="1" arrows="1" fold="1" page="1" pageScale="1" pageWidth="827" pageHeight="1169" math="0" shadow="0">
      <root>
        <mxCell id="0" />
        <mxCell id="1" parent="0" />
        <mxCell id="1dOGnztXJo5YRSoAIEBX-5" style="edgeStyle=orthogonalEdgeStyle;rounded=0;orthogonalLoop=1;jettySize=auto;html=1;exitX=1;exitY=0.5;exitDx=0;exitDy=0;entryX=0;entryY=0.5;entryDx=0;entryDy=0;" edge="1" parent="1" source="1dOGnztXJo5YRSoAIEBX-1" target="1dOGnztXJo5YRSoAIEBX-2">
          <mxGeometry relative="1" as="geometry">
            <Array as="points">
              <mxPoint x="280" y="120" />
              <mxPoint x="280" y="60" />
            </Array>
          </mxGeometry>
        </mxCell>
        <mxCell id="1dOGnztXJo5YRSoAIEBX-6" style="edgeStyle=orthogonalEdgeStyle;rounded=0;orthogonalLoop=1;jettySize=auto;html=1;exitX=1;exitY=0.5;exitDx=0;exitDy=0;entryX=0;entryY=0.5;entryDx=0;entryDy=0;" edge="1" parent="1" source="1dOGnztXJo5YRSoAIEBX-1" target="1dOGnztXJo5YRSoAIEBX-3">
          <mxGeometry relative="1" as="geometry" />
        </mxCell>
        <mxCell id="1dOGnztXJo5YRSoAIEBX-7" style="edgeStyle=orthogonalEdgeStyle;rounded=0;orthogonalLoop=1;jettySize=auto;html=1;exitX=1;exitY=0.5;exitDx=0;exitDy=0;entryX=0;entryY=0.5;entryDx=0;entryDy=0;" edge="1" parent="1" source="1dOGnztXJo5YRSoAIEBX-1" target="1dOGnztXJo5YRSoAIEBX-4">
          <mxGeometry relative="1" as="geometry">
            <Array as="points">
              <mxPoint x="280" y="120" />
              <mxPoint x="280" y="180" />
            </Array>
          </mxGeometry>
        </mxCell>
        <mxCell id="1dOGnztXJo5YRSoAIEBX-1" value="RQ1: Quali sono i fattori che impattano sulla motivazione degli ingegneri del software" style="rounded=0;whiteSpace=wrap;html=1;" vertex="1" parent="1">
          <mxGeometry x="80" y="90" width="170" height="60" as="geometry" />
        </mxCell>
        <mxCell id="1dOGnztXJo5YRSoAIEBX-2" value="Fattori che impattano positivamente" style="rounded=0;whiteSpace=wrap;html=1;" vertex="1" parent="1">
          <mxGeometry x="320" y="40" width="150" height="40" as="geometry" />
        </mxCell>
        <mxCell id="1dOGnztXJo5YRSoAIEBX-3" value="Fattori che impattano negativamente" style="rounded=0;whiteSpace=wrap;html=1;" vertex="1" parent="1">
          <mxGeometry x="320" y="100" width="150" height="40" as="geometry" />
        </mxCell>
        <mxCell id="1dOGnztXJo5YRSoAIEBX-4" value="Fattori che non Ã¨ certo se impattano o meno" style="rounded=0;whiteSpace=wrap;html=1;" vertex="1" parent="1">
          <mxGeometry x="320" y="160" width="150" height="40" as="geometry" />
        </mxCell>
        <mxCell id="1dOGnztXJo5YRSoAIEBX-22" style="edgeStyle=orthogonalEdgeStyle;rounded=0;orthogonalLoop=1;jettySize=auto;html=1;exitX=0.993;exitY=0.619;exitDx=0;exitDy=0;exitPerimeter=0;entryX=-0.004;entryY=0.568;entryDx=0;entryDy=0;entryPerimeter=0;" edge="1" parent="1" source="1dOGnztXJo5YRSoAIEBX-8" target="1dOGnztXJo5YRSoAIEBX-20">
          <mxGeometry relative="1" as="geometry" />
        </mxCell>
        <mxCell id="1dOGnztXJo5YRSoAIEBX-8" value="RISPOSTE" style="shape=folder;fontStyle=1;spacingTop=10;tabWidth=40;tabHeight=14;tabPosition=left;html=1;whiteSpace=wrap;" vertex="1" parent="1">
          <mxGeometry x="520" y="80" width="80" height="80" as="geometry" />
        </mxCell>
        <mxCell id="1dOGnztXJo5YRSoAIEBX-13" value="" style="html=1;points=[[0,0,0,0,5],[0,1,0,0,-5],[1,0,0,0,5],[1,1,0,0,-5]];perimeter=orthogonalPerimeter;outlineConnect=0;targetShapes=umlLifeline;portConstraint=eastwest;newEdgeStyle={&quot;curved&quot;:0,&quot;rounded&quot;:0};" vertex="1" parent="1">
          <mxGeometry x="480" y="40" width="10" height="160" as="geometry" />
        </mxCell>
        <mxCell id="1dOGnztXJo5YRSoAIEBX-16" value="" style="endArrow=none;html=1;rounded=0;entryX=1;entryY=0.5;entryDx=0;entryDy=0;" edge="1" parent="1" source="1dOGnztXJo5YRSoAIEBX-13" target="1dOGnztXJo5YRSoAIEBX-2">
          <mxGeometry width="50" height="50" relative="1" as="geometry">
            <mxPoint x="400" y="130" as="sourcePoint" />
            <mxPoint x="450" y="80" as="targetPoint" />
          </mxGeometry>
        </mxCell>
        <mxCell id="1dOGnztXJo5YRSoAIEBX-17" value="" style="endArrow=none;html=1;rounded=0;entryX=1;entryY=0.5;entryDx=0;entryDy=0;" edge="1" parent="1" source="1dOGnztXJo5YRSoAIEBX-13" target="1dOGnztXJo5YRSoAIEBX-3">
          <mxGeometry width="50" height="50" relative="1" as="geometry">
            <mxPoint x="400" y="130" as="sourcePoint" />
            <mxPoint x="450" y="80" as="targetPoint" />
          </mxGeometry>
        </mxCell>
        <mxCell id="1dOGnztXJo5YRSoAIEBX-18" value="" style="endArrow=none;html=1;rounded=0;entryX=1;entryY=0.5;entryDx=0;entryDy=0;" edge="1" parent="1" source="1dOGnztXJo5YRSoAIEBX-13" target="1dOGnztXJo5YRSoAIEBX-4">
          <mxGeometry width="50" height="50" relative="1" as="geometry">
            <mxPoint x="400" y="170" as="sourcePoint" />
            <mxPoint x="450" y="120" as="targetPoint" />
          </mxGeometry>
        </mxCell>
        <mxCell id="1dOGnztXJo5YRSoAIEBX-19" value="" style="endArrow=none;html=1;rounded=0;exitX=0;exitY=0;exitDx=0;exitDy=47;exitPerimeter=0;" edge="1" parent="1" source="1dOGnztXJo5YRSoAIEBX-8" target="1dOGnztXJo5YRSoAIEBX-13">
          <mxGeometry width="50" height="50" relative="1" as="geometry">
            <mxPoint x="370" y="150" as="sourcePoint" />
            <mxPoint x="420" y="100" as="targetPoint" />
          </mxGeometry>
        </mxCell>
        <mxCell id="1dOGnztXJo5YRSoAIEBX-20" value="Report" style="shape=note;whiteSpace=wrap;html=1;backgroundOutline=1;darkOpacity=0.05;" vertex="1" parent="1">
          <mxGeometry x="640" y="90" width="60" height="70" as="geometry" />
        </mxCell>
      </root>
    </mxGraphModel>
  </diagram>
</mxfile>
